<?xml version="1.0" standalone="no"?>
<!DOCTYPE svg PUBLIC "-//W3C//DTD SVG 20010904//EN"
 "http://www.w3.org/TR/2001/REC-SVG-20010904/DTD/svg10.dtd">
<svg version="1.0" xmlns="http://www.w3.org/2000/svg"
 width="48.000000pt" height="48.000000pt" viewBox="0 0 48.000000 48.000000"
 preserveAspectRatio="xMidYMid meet">

<g transform="translate(0.000000,48.000000) scale(0.100000,-0.100000)"
fill="#000000" stroke="none">
<path d="M145 390 c-33 -34 -42 -36 -66 -14 -10 9 -23 13 -29 9 -13 -8 35 -65
55 -65 15 0 85 73 85 88 0 20 -14 14 -45 -18z"/>
<path d="M145 260 c-33 -34 -42 -36 -66 -14 -10 9 -23 13 -29 9 -13 -8 35 -65
55 -65 15 0 85 73 85 88 0 20 -14 14 -45 -18z"/>
<path d="M145 130 c-33 -34 -42 -36 -66 -14 -10 9 -23 13 -29 9 -13 -8 35 -65
55 -65 15 0 85 73 85 88 0 20 -14 14 -45 -18z"/>
</g>
</svg>
